<svg width="730" height="684" viewBox="0 0 730 684" fill="none" xmlns="http://www.w3.org/2000/svg">
<path d="M440.062 56.125C424.75 65.1875 420.375 80.8125 418.562 87.25C418.125 88.8125 413 108 421.875 128C424.5 133.938 427.312 140.063 433.687 143C437.375 144.75 440.687 144.625 453.687 143.5C459.75 143 466.312 142.375 473.312 141.625C478.25 135.313 486.75 122.688 489.25 104.938C489.687 101.625 494.812 62.125 473.312 51.625C459.25 44.6875 442.312 54.75 440.062 56.125Z" fill="#FFCB7D"/>
<path d="M157.312 149.312C165.114 149.312 171.438 142.317 171.438 133.688C171.438 125.058 165.114 118.062 157.312 118.062C149.511 118.062 143.188 125.058 143.188 133.688C143.188 142.317 149.511 149.312 157.312 149.312Z" fill="#EF8466"/>
<path d="M477.625 399.687C483.424 399.687 488.125 395.154 488.125 389.562C488.125 383.971 483.424 379.437 477.625 379.437C471.826 379.437 467.125 383.971 467.125 389.562C467.125 395.154 471.826 399.687 477.625 399.687Z" fill="#EF8466"/>
<path d="M157.438 338.563C161.752 338.563 165.25 335.065 165.25 330.75C165.25 326.435 161.752 322.938 157.438 322.938C153.123 322.938 149.625 326.435 149.625 330.75C149.625 335.065 153.123 338.563 157.438 338.563Z" fill="#EF8466"/>
<path d="M142.875 144.125C149.744 144.125 155.312 138.277 155.312 131.063C155.312 123.848 149.744 118 142.875 118C136.006 118 130.438 123.848 130.438 131.063C130.438 138.277 136.006 144.125 142.875 144.125Z" fill="#7EACFE"/>
<path d="M474.75 383.688C478.996 383.688 482.437 380.106 482.437 375.687C482.437 371.269 478.996 367.687 474.75 367.687C470.504 367.687 467.062 371.269 467.062 375.687C467.062 380.106 470.504 383.688 474.75 383.688Z" fill="#7EACFE"/>
<path d="M577.5 163.062C582.16 163.062 585.938 159.033 585.938 154.062C585.938 149.092 582.16 145.062 577.5 145.062C572.84 145.062 569.063 149.092 569.063 154.062C569.063 159.033 572.84 163.062 577.5 163.062Z" fill="#7EACFE"/>
<path d="M394.25 218.687C392.875 216.5 390.625 218.562 389.688 220.062C387.75 223.187 386.5 227.062 387.938 230.625C389 233.312 391.625 235.563 394.688 235.125C397.5 234.75 399.625 232.437 399.563 229.625C399.563 228.875 398.5 228.312 397.938 228.937C394.625 233.125 390.563 239.062 393.875 244.438C396.188 248.125 401.875 248.625 404.125 244.625C403.563 244.562 403 244.5 402.438 244.375C402.75 246.125 403.063 247.875 403.313 249.625C403.5 250.812 405.313 250.313 405.125 249.125C404.813 247.375 404.5 245.625 404.25 243.875C404.125 243.063 402.875 243 402.563 243.625C401.563 245.375 399.313 246 397.5 245.125C395.5 244.125 394.625 241.875 394.625 239.687C394.625 236.062 397.188 232.875 399.313 230.187C398.75 229.937 398.25 229.75 397.688 229.5C397.75 231.875 395.438 233.625 393.125 233.125C391.375 232.75 390.25 231.25 389.625 229.625C389 227.937 389.063 226.25 389.563 224.562C389.625 224.437 392.188 218.875 392.563 219.5C393.25 220.625 394.875 219.687 394.25 218.687Z" fill="#EF8466"/>
<path d="M139.062 224.312C140.437 220.562 145 222.187 146.438 224.813C146.938 225.688 147.187 226.687 147.312 227.687C147.562 229.562 147.375 230.312 145.75 231.437C144 233.187 143.562 232.5 144.5 229.375C144.937 229.187 145.438 229 145.875 228.813C147.063 228.5 148.438 228.562 149.625 228.937C152.625 229.937 154.125 233.125 153.688 236.063C153.563 236.813 154.313 237.563 155.063 237.125C159.125 234.812 164.5 237.375 165.438 241.938C165.688 243.125 167.5 242.625 167.25 241.438C166.063 235.687 159.25 232.687 154.125 235.563C154.563 235.938 155.063 236.25 155.5 236.625C156.313 231.125 152.125 226 146.312 226.875C144.312 227.187 141.312 228.437 141.062 230.812C140.875 232.75 142.687 234.188 144.5 234.375C149.875 234.875 149.75 227.062 148 223.937C145.625 219.687 139.062 218.625 137.187 223.875C136.812 224.938 138.625 225.437 139.062 224.312Z" fill="#EF8466"/>
<path d="M468.125 459.562C472.938 462.75 477 466.812 480.25 471.562C480.938 472.562 482.563 471.625 481.875 470.625C478.438 465.625 474.188 461.375 469.125 458C468.063 457.25 467.125 458.875 468.125 459.562Z" fill="#7EACFE"/>
<path d="M480.313 463C481.313 464.188 482.25 465.438 483.25 466.625C484 467.563 485.312 466.25 484.562 465.313C483.562 464.125 482.625 462.875 481.625 461.688C480.875 460.75 479.563 462.125 480.313 463Z" fill="#7EACFE"/>
<path d="M474.562 445.5C478.875 449.5 482.438 454.063 485.188 459.25C485.75 460.313 487.375 459.375 486.813 458.313C484 453 480.313 448.25 475.875 444.188C475 443.313 473.687 444.687 474.562 445.5Z" fill="#7EACFE"/>
<path d="M42.4375 515.875C43.8125 529.438 46.1875 542.813 49.5 556.063C49.8125 557.25 51.625 556.75 51.3125 555.563C48.0625 542.5 45.6875 529.25 44.3125 515.875C44.1875 514.687 42.3125 514.687 42.4375 515.875Z" fill="#E8E8E8"/>
<path d="M49.875 556.688C62.1875 559.875 75 559.875 87.3125 556.688C88.5 556.375 88 554.563 86.8125 554.875C74.8125 558 62.375 558 50.375 554.875C49.25 554.563 48.75 556.375 49.875 556.688Z" fill="#E8E8E8"/>
<path d="M88.75 554.813C89.5625 541.5 90.625 528.188 91.875 514.875C92 513.687 90.125 513.687 90 514.875C88.75 528.188 87.6875 541.5 86.875 554.813C86.8125 556 88.6875 556 88.75 554.813Z" fill="#E8E8E8"/>
<path d="M43.5 516.875C59.0625 520.063 75.0625 519.938 90.625 516.437C91.8125 516.187 91.3125 514.375 90.125 514.625C74.9375 518 59.25 518.187 44 515.062C42.8125 514.812 42.3125 516.625 43.5 516.875Z" fill="#E8E8E8"/>
<path d="M43.3125 521.375C43.8125 523.938 47.0625 523.813 49.0625 524C54.125 524.438 59.25 524.563 64.3125 524.438C69.1875 524.313 74.0625 523.938 78.9375 523.375C82.8125 522.875 86.5625 522.375 90 520.438C91.0625 519.875 90.125 518.25 89.0625 518.812C82.875 522.25 74.3125 522.125 67.375 522.438C63.9375 522.563 60.4375 522.625 57 522.563C55.1875 522.5 45.5 522.938 45.125 520.875C44.875 519.688 43.125 520.188 43.3125 521.375Z" fill="#E8E8E8"/>
<path d="M46.875 543.063C49.875 548.375 53.6875 553.063 58.25 557.125C59.125 557.938 60.5 556.625 59.5625 555.812C55.0625 551.875 51.375 547.313 48.5 542.125C47.9375 541.063 46.3125 542 46.875 543.063Z" fill="#E8E8E8"/>
<path d="M44.4375 528.625C50.8125 539.375 58.5625 549.25 67.4375 558.125C68.3125 559 69.625 557.625 68.75 556.813C60 548.063 52.375 538.313 46.0625 527.688C45.4375 526.688 43.8125 527.625 44.4375 528.625Z" fill="#E8E8E8"/>
<path d="M54.875 524.125C61.5 535.937 69.1875 547.125 77.875 557.562C78.625 558.5 79.9375 557.188 79.1875 556.25C70.625 545.937 63 534.875 56.5 523.187C55.9375 522.125 54.3125 523.062 54.875 524.125Z" fill="#E8E8E8"/>
<path d="M66.8125 524.562C73.25 534.187 79.75 543.75 86.3125 553.313C87 554.313 88.625 553.375 87.9375 552.375C81.375 542.813 74.875 533.25 68.4375 523.625C67.75 522.625 66.125 523.562 66.8125 524.562Z" fill="#E8E8E8"/>
<path d="M76.8125 524C80.0625 529.25 83.5625 534.375 87.1875 539.375C87.875 540.313 89.5 539.375 88.8125 538.438C85.1875 533.438 81.6875 528.313 78.4375 523.063C77.8125 522.063 76.1875 523 76.8125 524Z" fill="#E8E8E8"/>
<path d="M22.75 460.875C23.5 465.188 24.25 469.563 25.0625 473.875C25.3125 475.063 25.5 476.313 26.5 477.063C27.1875 477.625 29.4375 477.563 29.875 478.188C29.9375 477.813 30 477.438 30 477.063C29.0625 478 28.125 478.938 27.125 479.813C26.875 480.063 26.8125 480.438 26.875 480.75C27.4375 482.438 27.8125 484.938 28.9375 486.375C29.5 487.125 30.5 487 30.9375 487.438C31.3125 487.813 31.1875 487.563 31 488.688C30.875 489.625 30.875 490.625 31 491.625C31.1875 493.125 31.625 494.563 32.1875 495.938C35.4375 503.813 41.75 510.188 47.8125 516.063C48.6875 516.875 50 515.563 49.125 514.75C45.25 511 41.375 507.125 38.1875 502.75C35.0625 498.438 31.375 492.625 33.3125 487.125C33.4375 486.813 33.3125 486.375 33.0625 486.188C31.875 485.25 30.6875 485.625 29.875 484.125C28.3125 481.313 29.1875 480.375 31.1875 478.438C31.5 478.188 31.5625 477.625 31.3125 477.313C30.8125 476.563 30.4375 476.313 29.625 476.063C29.125 475.875 28.375 476.063 27.875 475.813C26.8125 475.25 26.8125 473.875 26.625 472.875C25.875 468.75 25.125 464.563 24.4375 460.438C24.3125 459.188 22.5 459.688 22.75 460.875Z" fill="#E8E8E8"/>
<path d="M24.125 460.625C48.5 468.75 65.1875 491.5 65.6875 517.25C65.6875 518.438 67.5625 518.438 67.5625 517.25C67.0625 490.688 49.8125 467.25 24.625 458.813C23.5 458.437 23 460.25 24.125 460.625Z" fill="#E8E8E8"/>
<path d="M61.5625 491.625C67.625 474.813 76.5625 458.563 90.875 447.5C91.8125 446.75 90.875 445.125 89.9375 445.875C75.1875 457.313 66 473.813 59.75 491.125C59.375 492.25 61.1875 492.75 61.5625 491.625Z" fill="#E8E8E8"/>
<path d="M89.25 447.125C89.6875 452.875 90.1875 458.625 90.625 464.438C90.75 465.625 92.625 465.625 92.5 464.438C92.0625 458.688 91.5625 452.938 91.125 447.125C91.0625 445.938 89.1875 445.938 89.25 447.125Z" fill="#E8E8E8"/>
<path d="M91.4375 463.812C90.625 464 89.8125 464.188 89.0625 464.438C87.875 464.75 88.375 466.563 89.5625 466.25C90.375 466.063 91.1875 465.875 91.9375 465.625C93.125 465.313 92.625 463.562 91.4375 463.812Z" fill="#E8E8E8"/>
<path d="M88.125 466.125C88.375 467.312 89.375 468.062 90.5 468.187C91 468.25 91.4375 467.75 91.4375 467.25C91.4375 466.687 91 466.375 90.5 466.312C90.6875 466.312 90.5 466.312 90.4375 466.312C90.375 466.312 90.25 466.25 90.375 466.312C90.3125 466.25 90.25 466.25 90.1875 466.188C90.0625 466.125 90.3125 466.312 90.125 466.125C90.0625 466.062 90.0625 466.062 90 466C90.125 466.125 90 466 90 465.938C89.9375 465.875 89.9375 465.75 89.9375 465.875C89.9375 465.813 89.875 465.688 89.875 465.625C89.75 465.125 89.1875 464.813 88.75 465C88.25 465.125 88 465.625 88.125 466.125Z" fill="#E8E8E8"/>
<path d="M89.5625 467.5C89.625 471.062 89.5 474.563 89.125 478.063C89 479.188 89.1875 481.812 88.4375 482.687C88.375 482.75 87.25 482.938 87 483.125C86.0625 483.875 87.375 485.187 88.3125 484.437C88.625 484.187 89.375 484.438 89.875 483.875C90.625 483.125 90.5 481.375 90.625 480.5C91.1875 476.187 91.4375 471.812 91.375 467.437C91.4375 466.312 89.5625 466.312 89.5625 467.5Z" fill="#E8E8E8"/>
<path d="M86.25 484.75C88.25 487.125 87.6875 491.063 87.5 493.938C87.25 497.25 86.6875 500.313 85.0625 503.188C82.75 507.438 79.5 511 77.8125 515.625C77.375 516.75 79.1875 517.25 79.625 516.125C81.875 510.063 87.0625 505.563 88.625 499.188C89.75 494.625 90.8125 487.313 87.5625 483.438C86.8125 482.563 85.5 483.875 86.25 484.75Z" fill="#E8E8E8"/>
<path d="M71.5 516.5C73.25 498.75 77.9375 481.438 85.4375 465.313C85.9375 464.25 84.3125 463.25 83.8125 464.375C76.1875 480.875 71.375 498.438 69.625 516.563C69.5 517.75 71.375 517.688 71.5 516.5Z" fill="#E8E8E8"/>
<path d="M34.625 471.063C45.5625 484.813 53.5625 500.625 58.25 517.5C58.5625 518.688 60.375 518.188 60.0625 517C55.25 499.75 47.0625 483.75 35.9375 469.75C35.1875 468.813 33.875 470.125 34.625 471.063Z" fill="#E8E8E8"/>
<path d="M35.8125 494.125C41.0625 493.812 45.9375 495.062 50.375 497.812C51.375 498.437 52.375 496.813 51.3125 496.188C46.625 493.313 41.3125 491.937 35.8125 492.25C34.5625 492.312 34.5625 494.187 35.8125 494.125Z" fill="#E8E8E8"/>
<path d="M47.25 485.75C46.875 482.313 47.3125 479 48.625 475.75C49.0625 474.625 47.25 474.125 46.8125 475.25C45.4375 478.625 45 482.125 45.375 485.75C45.5 486.937 47.375 486.937 47.25 485.75Z" fill="#E8E8E8"/>
<path d="M67.5 475.375C69.5625 480.438 72.5625 485.813 73.3125 491.188C73.5 492.375 75.3125 491.875 75.125 490.687C74.3125 485.25 71.3125 479.875 69.3125 474.875C68.875 473.75 67.0625 474.25 67.5 475.375Z" fill="#E8E8E8"/>
<path d="M79 481.313C80.8125 479.25 82.5625 476.813 84.875 475.25C86.8125 473.938 88.9375 473.063 90.4375 471.25C91.1875 470.313 89.875 469 89.125 469.938C87.5 471.875 85.125 472.688 83.1875 474.188C81.0625 475.813 79.4375 478 77.6875 480C76.875 480.938 78.1875 482.25 79 481.313Z" fill="#E8E8E8"/>
<path d="M79.625 515.875C82.625 515.063 85.6875 514.75 88.8125 514.938C90 515 90 513.125 88.8125 513.063C85.5 512.875 82.3125 513.188 79.125 514.063C78 514.375 78.4375 516.188 79.625 515.875Z" fill="#E8E8E8"/>
<path d="M79.375 516.625C82.875 516.937 86.25 516.5 89.625 515.438C90.75 515.063 90.25 513.25 89.125 513.625C85.9375 514.625 82.6875 515 79.375 514.75C78.1875 514.687 78.1875 516.562 79.375 516.625Z" fill="#E8E8E8"/>
<path d="M44.3125 516.312C45.125 516.312 45.875 516.312 46.6875 516.312C47.875 516.312 47.875 514.438 46.6875 514.438C45.875 514.438 45.125 514.438 44.3125 514.438C43.125 514.438 43.125 516.312 44.3125 516.312Z" fill="#E8E8E8"/>
<path d="M90.125 531.438C109.938 531.438 129.813 531.438 149.625 531.438C150.813 531.438 150.813 529.562 149.625 529.562C129.813 529.562 109.938 529.562 90.125 529.562C88.9375 529.562 88.9375 531.438 90.125 531.438Z" fill="#E8E8E8"/>
<path d="M425.5 519.062C437.312 519.062 449.063 519.062 460.875 519.062C462.062 519.062 462.062 517.188 460.875 517.188C449.063 517.188 437.312 517.188 425.5 517.188C424.313 517.188 424.313 519.062 425.5 519.062Z" fill="#E8E8E8"/>
<path d="M532.75 520.188C583.688 520.188 634.625 520.188 685.562 520.188C700.062 520.188 714.563 520.188 729.063 520.188C730.25 520.188 730.25 518.312 729.063 518.312C678.125 518.312 627.188 518.312 576.25 518.312C561.75 518.312 547.25 518.312 532.75 518.312C531.562 518.312 531.562 520.188 532.75 520.188Z" fill="#E8E8E8"/>
<path d="M457.312 315C452.562 324.813 447.437 334.438 442 343.875C441.75 344.375 441.937 345.188 442.562 345.25C469.375 349.313 493.375 362.625 516.5 376.063C517.562 376.688 518.5 375.063 517.437 374.438C494.125 360.938 470 347.563 443 343.438C443.187 343.875 443.375 344.375 443.562 344.813C449.062 335.375 454.125 325.75 458.875 315.938C459.437 314.875 457.875 313.875 457.312 315Z" fill="#E8E8E8"/>
<path d="M461.437 349.062C463.312 343.687 465.187 338.25 467.062 332.875C467.875 330.625 468.438 328.125 469.5 325.937C469.75 324.625 470.563 323.625 471.813 322.875C472.563 323.062 473.313 323.25 474.063 323.437C475.188 323.75 476.313 324 477.375 324.312C479.938 324.937 484.063 324.937 483.625 328.375C483.313 330.812 481.875 333.437 481.063 335.812C479.188 341.125 477.375 346.437 475.5 351.75C475.125 352.875 476.938 353.375 477.313 352.25C479.75 345.25 482.188 338.187 484.625 331.187C485.188 329.562 486.75 326.812 485.5 325.062C484.125 323.187 480 323.062 477.875 322.5C475.813 322 472.188 320.125 470.063 321.125C468.25 321.937 467.875 325.062 467.313 326.625C464.75 333.937 462.188 341.312 459.625 348.625C459.25 349.687 461.062 350.187 461.437 349.062Z" fill="#E8E8E8"/>
<path d="M485.563 355.75C489.563 347.313 493.625 338.813 497.625 330.375C499.625 326.125 501.625 321.938 503.688 317.688C504.625 315.75 505.375 313.438 506.563 311.625C507.563 310.063 507.813 309.688 509.563 310.375C510.5 310.75 511.625 311.688 512.438 312.25C513.5 313 515.188 313.813 515.938 314.813C516.875 316 516.5 317.25 515.938 318.75C515.188 320.75 514.063 322.688 513.125 324.625C511.063 328.875 509 333.125 506.813 337.375C502.688 345.438 498.375 353.438 493.938 361.375C493.313 362.438 494.938 363.375 495.563 362.313C501 352.688 506.188 342.938 511.063 333.063C513.5 328.188 516.188 323.188 518.25 318.125C519.688 314.438 516.563 312.938 513.813 311C511.625 309.5 508.188 306.063 505.813 308.875C504.313 310.625 503.5 313.563 502.5 315.688C501.25 318.25 500.063 320.813 498.813 323.438C493.813 333.938 488.813 344.438 483.875 354.938C483.437 355.875 485.063 356.875 485.563 355.75Z" fill="#E8E8E8"/>
<path d="M506.313 368.75C511.688 360.312 517.75 352.312 524.437 344.937C524.062 345 523.687 345.062 523.312 345.062C525.687 346.687 528 348.25 530.375 349.875C530.25 349.437 530.125 349 530.062 348.562C524.75 356.875 519.437 365.125 514.125 373.437C513.5 374.437 515.062 375.375 515.75 374.375C521.062 366.062 526.375 357.812 531.687 349.5C532 349.062 531.75 348.5 531.375 348.187C529 346.562 526.687 345 524.312 343.375C524 343.125 523.437 343.25 523.187 343.5C516.375 351.062 510.188 359.125 504.75 367.687C504.063 368.875 505.688 369.812 506.313 368.75Z" fill="#E8E8E8"/>
<path d="M580.875 309.312C574.625 306.937 570.688 300.687 571.813 294C572.938 287.187 579.625 281.125 586.5 285.187C591.25 288 593.688 294.375 591.875 299.562C590 305.125 583.875 308.437 578.188 307.562C577 307.375 576.5 309.187 577.688 309.375C584.375 310.375 591.438 306.687 593.688 300.062C595.938 293.437 592.313 285.437 585.813 282.75C578.188 279.625 571.25 286.187 569.938 293.5C568.563 301.25 573.125 308.375 580.313 311.125C581.5 311.562 582 309.75 580.875 309.312Z" fill="#E8E8E8"/>
<path d="M593.687 308.125C581.25 307.75 585.938 287.813 596.938 288.563C607.938 289.375 603.437 311.813 591.375 307.688C590.25 307.313 589.75 309.125 590.875 309.5C604.812 314.25 611.062 288.875 597.75 286.75C591.25 285.687 585.375 291.812 584.375 297.875C583.375 303.875 587.437 309.75 593.687 309.938C594.875 310.063 594.875 308.188 593.687 308.125Z" fill="#E8E8E8"/>
<path d="M584.375 251.563C583.313 250.438 582.813 248.625 583.625 247.25C584.438 245.938 586.438 245.313 587.688 246.313C588.813 247.188 589.063 249.063 588 250C586.75 251.125 584.75 250.563 583.563 249.625C582.625 248.875 581.313 250.188 582.25 250.938C584.188 252.438 587.188 253.188 589.25 251.375C591.125 249.688 590.938 246.563 589.063 244.938C587.125 243.25 584.063 243.75 582.438 245.625C580.625 247.75 581.125 250.938 583 252.875C583.875 253.75 585.188 252.438 584.375 251.563Z" fill="#E8E8E8"/>
<path d="M403 298.625C401.25 288 407.437 275.188 419.438 275.313C425.563 275.375 431.5 277.875 437.687 277C442.062 276.375 445.813 273.875 448.438 270.438C451.063 267 452.563 262.688 452.813 258.375C453.125 252 450.688 245.5 452.438 239.188C453.313 236 455.188 233.063 458.375 231.875C461.438 230.813 464.75 231.438 467.938 231.313C472.563 231.125 476.188 229.125 478.5 225.063C481.75 219.375 481 212.563 483.25 206.563C485.938 199.313 493.5 193.125 501.5 196.688C502.563 197.188 503.563 195.563 502.438 195.063C491.563 190.188 482.5 200 480.375 209.875C479 216.313 479.25 226.313 471.563 228.875C466.188 230.688 460.125 227.875 455.188 231.563C451.125 234.563 449.938 240.063 450 244.875C450.188 251.938 452.375 258.813 449.25 265.563C446.375 271.938 440.688 275.75 433.625 275.313C427.375 274.938 421.187 272.375 414.875 274C404.187 276.688 399.625 289.313 401.312 299.188C401.437 300.25 403.25 299.75 403 298.625Z" fill="#E8E8E8"/>
<path d="M482 254.062C479.687 248.812 482.875 243.812 487.938 242.125C491.625 240.875 495.688 240.812 498.875 238.312C501.375 236.375 502.188 233.937 501.875 230.812C501.563 227.875 501.563 225.562 503.875 223.562C505.813 221.875 508.375 221.25 510.875 221.125C517.75 220.875 527.188 224.375 532.188 217.687C534.5 214.562 533.813 210.687 534.875 207.187C536.313 202.312 541 199.312 546 199.562C547.188 199.625 547.188 197.75 546 197.687C542.188 197.5 538.5 198.938 535.875 201.688C532.625 205.125 533.063 209 532.063 213.312C529.375 225.125 512.938 216.812 505.188 220.5C502.312 221.875 500 224.312 499.75 227.562C499.438 231.375 501.188 234.5 497.313 237.125C495.25 238.5 492.875 238.937 490.5 239.5C486.562 240.437 482.688 241.625 480.688 245.437C479.063 248.437 479.062 251.875 480.437 254.937C480.875 256.125 482.437 255.125 482 254.062Z" fill="#E8E8E8"/>
<path d="M593.375 170.813C593.125 170.25 592.875 169.625 592.687 169C593.5 168.063 594.25 167.125 595.062 166.188C595.312 166.125 596.437 166.875 596.812 166.875C597.75 167 598.562 166.75 599.312 166.188C601.625 164.375 600.812 161.5 601.5 159.063C602.625 154.875 607.562 157.75 609.812 154.625C612.062 151.563 611.25 145.063 617.25 146.813C618.437 147.125 618.937 145.313 617.75 145C614.312 144 611.187 145.625 609.937 148.938C609.562 149.875 609.437 150.938 609.062 151.875C608.25 154.063 607.375 154.375 605 154.5C603.25 154.625 601.875 154.5 600.687 156C599.687 157.313 599.687 159 599.5 160.563C599.312 162.875 599.5 164.813 596.062 164.563C595.375 164.5 594.812 163.875 594.062 163.875C589.937 163.813 590.625 168.875 591.625 171.313C592 172.438 593.875 171.938 593.375 170.813Z" fill="#E8E8E8"/>
<path d="M605.125 176C604.125 174.688 602.438 170.875 605.375 169.875C606.438 169.5 607.813 169.938 608.938 169.938C609.938 169.938 610.813 169.938 611.625 169.25C614.125 167.25 612.313 163.688 613.625 161.188C615.75 157.125 620 160.313 623 158.188C625.125 156.688 625.688 153.813 626.063 151.438C626.25 150.25 624.438 149.75 624.25 150.938C623.813 153.75 623.313 156.875 619.813 157.188C618 157.375 616.625 156.75 614.938 157.563C612.188 158.875 611.313 161.313 611.25 164.125C611.188 166.5 611.75 167.688 607.75 167.875C607.25 167.875 606.75 167.75 606.25 167.75C604.813 167.875 603.563 168.625 602.75 169.813C601 172.313 602 175.188 603.75 177.375C604.563 178.313 605.875 176.938 605.125 176Z" fill="#E8E8E8"/>
<path d="M73.75 209.875C78.9375 203.625 86.3125 198.5 94.8125 199.375C104.062 200.313 108.625 207.688 109.5 216.313C111 230.625 107.5 247.75 117.187 259.938C121 264.75 126.687 267.312 132.812 265.812C140.187 264.062 145.937 258.25 152.5 254.813C160.25 250.75 170.937 248.563 177.937 255.375C183.062 260.375 184.188 268 185.875 274.625C187.438 280.625 190.125 287.25 195.5 290.812C198.75 292.938 202.312 293.125 206.062 292.875C210.25 292.563 218.812 292.313 217.938 298.875C217.812 300.063 219.688 300.063 219.812 298.875C220.125 296.313 218.937 294.25 216.875 292.75C213.625 290.375 209.875 290.75 206.062 291C201.75 291.313 198.063 290.938 194.75 287.875C191.75 285.125 189.937 281.25 188.625 277.438C186.437 270.875 185.812 263.688 182.062 257.687C178.375 251.75 172 248.875 165.125 249.125C156.437 249.438 149.125 254.438 142.187 259.063C138.875 261.25 135.312 263.562 131.25 264.25C126.375 265.062 122.063 262.938 118.938 259.312C113.063 252.438 112.125 242.625 111.813 234C111.5 225.938 112.562 217.188 109.875 209.375C107.438 202.25 101.25 197.813 93.8125 197.438C85.1875 197 77.625 202.188 72.3125 208.563C71.625 209.5 72.9375 210.812 73.75 209.875Z" fill="#E8E8E8"/>
<path d="M42.1875 306.313C51.9375 322.563 60.625 339.375 68.3125 356.687C68.8125 357.812 70.4375 356.812 69.9375 355.75C62.25 338.438 53.5 321.625 43.8125 305.375C43.1875 304.313 41.5625 305.25 42.1875 306.313Z" fill="#E8E8E8"/>
<path d="M43.375 305.563C58.5625 296.125 74.1875 287.313 90.25 279.313C91.3125 278.75 90.375 277.125 89.3125 277.688C73.3125 285.688 57.6875 294.5 42.4375 303.938C41.375 304.625 42.3125 306.25 43.375 305.563Z" fill="#E8E8E8"/>
<path d="M89.125 278.5C97.0625 295.188 105.438 311.625 114.312 327.813C114.875 328.875 116.5 327.938 115.937 326.875C107.062 310.688 98.625 294.25 90.75 277.563C90.1875 276.438 88.625 277.375 89.125 278.5Z" fill="#E8E8E8"/>
<path d="M70.4375 357.062C85.375 348.062 100.125 338.813 114.75 329.313C115.75 328.688 114.813 327.063 113.813 327.688C99.1875 337.188 84.4375 346.438 69.5 355.438C68.5 356.063 69.4375 357.687 70.4375 357.062Z" fill="#E8E8E8"/>
<path d="M69.25 300.063C68.875 312.063 69.5625 324 71.3125 335.875C71.5 337.063 73.3125 336.563 73.125 335.375C71.375 323.688 70.75 311.875 71.125 300.063C71.1875 298.875 69.3125 298.875 69.25 300.063Z" fill="#E8E8E8"/>
<path d="M69.3125 299.437C78 306.25 86.6875 312.937 95.5 319.562C96.4375 320.312 97.375 318.687 96.4375 317.937C87.75 311.438 79.125 304.812 70.625 298.125C69.6875 297.375 68.375 298.687 69.3125 299.437Z" fill="#E8E8E8"/>
<path d="M73.25 336.25C80.4375 329.813 89.8125 326.375 96.625 319.438C97.5 318.563 96.125 317.25 95.3125 318.125C88.5 325 79.1875 328.5 71.9375 334.938C71 335.688 72.375 337 73.25 336.25Z" fill="#E8E8E8"/>
<path d="M44.6875 316.125C46.6875 315.125 48.6875 314.187 50.6875 313.187C51.75 312.687 50.8125 311.062 49.75 311.562C47.75 312.562 45.75 313.5 43.75 314.5C42.6875 315.063 43.625 316.625 44.6875 316.125Z" fill="#E8E8E8"/>
<path d="M51.125 326.75C52.8125 325.625 54.625 324.688 56.5 323.875C57.625 323.438 57.125 321.625 56 322.063C53.9375 322.938 52 323.938 50.125 325.125C49.1875 325.813 50.125 327.437 51.125 326.75Z" fill="#E8E8E8"/>
<path d="M58.1875 339C59.9375 338.125 61.6875 337.25 63.4375 336.438C64.5 335.875 63.5625 334.313 62.5 334.813C60.75 335.688 59 336.563 57.25 337.375C56.1875 337.875 57.125 339.5 58.1875 339Z" fill="#E8E8E8"/>
<path d="M61.8125 351.25C63.75 349.562 65.75 348.125 68 346.875C69.0625 346.25 68.125 344.687 67.0625 345.25C64.75 346.562 62.5625 348.125 60.5 349.937C59.5625 350.75 60.875 352.062 61.8125 351.25Z" fill="#E8E8E8"/>
<path d="M92.6875 290.812C94.125 289.812 95.625 289.125 97.3125 288.687C98.5 288.375 98 286.625 96.8125 286.875C95 287.313 93.25 288.063 91.6875 289.188C90.75 289.875 91.6875 291.5 92.6875 290.812Z" fill="#E8E8E8"/>
<path d="M98.25 301.5C100.25 300.25 102.25 299 104.187 297.688C105.187 297.063 104.25 295.438 103.25 296.063C101.25 297.313 99.25 298.563 97.3125 299.875C96.25 300.563 97.1875 302.188 98.25 301.5Z" fill="#E8E8E8"/>
<path d="M104.625 314.313C106.75 313.375 108.938 312.438 111.063 311.5C112.188 311 111.188 309.375 110.125 309.875C108 310.812 105.813 311.75 103.688 312.688C102.563 313.188 103.563 314.813 104.625 314.313Z" fill="#E8E8E8"/>
<path d="M109.188 322.688C110.875 321.063 112.75 319.688 114.812 318.5C115.875 317.938 114.937 316.313 113.875 316.875C111.687 318.125 109.687 319.563 107.875 321.313C107 322.188 108.313 323.5 109.188 322.688Z" fill="#E8E8E8"/>
<path d="M75.75 348.812C77.3125 351.125 78.625 353.563 79.625 356.125C80.0625 357.25 81.875 356.75 81.4375 355.625C80.375 352.875 79.0625 350.25 77.375 347.812C76.6875 346.875 75.0625 347.812 75.75 348.812Z" fill="#E8E8E8"/>
<path d="M85.3125 343.625C86.5 345.75 87.625 347.813 88.8125 349.938C89.375 351 91 350.063 90.4375 349C89.25 346.875 88.125 344.813 86.9375 342.688C86.375 341.625 84.75 342.563 85.3125 343.625Z" fill="#E8E8E8"/>
<path d="M96.375 335.688C97.625 337.938 98.875 340.188 100.125 342.438C100.688 343.5 102.313 342.563 101.75 341.5C100.5 339.25 99.25 337 98 334.75C97.4375 333.688 95.8125 334.625 96.375 335.688Z" fill="#E8E8E8"/>
<path d="M106.312 329.75C107.312 332.125 108.312 334.5 109.375 336.813C109.875 337.938 111.437 336.938 111 335.875C110 333.5 109 331.125 107.937 328.813C107.437 327.75 105.812 328.688 106.312 329.75Z" fill="#E8E8E8"/>
<path d="M49.625 295.938C50.8125 297.875 51.9375 299.813 53.125 301.688C53.75 302.75 55.375 301.75 54.75 300.75C53.5625 298.813 52.4375 296.875 51.25 295C50.625 294 49 294.938 49.625 295.938Z" fill="#E8E8E8"/>
<path d="M60.375 289.687C61.5 292.187 62.625 294.688 63.75 297.188C64.25 298.313 65.875 297.313 65.375 296.25C64.25 293.75 63.125 291.25 62 288.75C61.4375 287.625 59.875 288.562 60.375 289.687Z" fill="#E8E8E8"/>
<path d="M70.0625 283.687C71.75 285.937 73.0625 288.375 73.9375 291C74.3125 292.125 76.125 291.625 75.75 290.5C74.8125 287.687 73.5 285.062 71.6875 282.75C71 281.812 69.375 282.687 70.0625 283.687Z" fill="#E8E8E8"/>
<path d="M80.5 278.875C81.8125 280.875 83.0625 282.813 84.375 284.813C85 285.813 86.625 284.875 86 283.875C84.6875 281.875 83.4375 279.938 82.125 277.938C81.4375 276.938 79.8125 277.875 80.5 278.875Z" fill="#E8E8E8"/>
<path d="M177.688 154.938C171.625 153.063 171.313 146.625 174.188 141.813C177 137.125 182.438 135.875 186.688 139.75C190.188 143 190.5 148.563 187.25 152.125C184 155.75 178.688 155.688 174.938 152.938C174 152.188 173.063 153.813 174 154.563C178.75 158.063 185.688 157.5 189.25 152.563C192.938 147.563 191.625 140.563 186.438 137.188C173.937 129.125 163.187 152.375 177.188 156.75C178.375 157.125 178.875 155.313 177.688 154.938Z" fill="#E8E8E8"/>
<path d="M187.75 156.562C183.063 158 181.938 152.375 184 149.375C185.688 146.937 189 145.5 192 146.312C194.875 147.062 196.938 150 196.188 152.937C195.25 156.625 191.375 157.937 187.938 157.375C186.75 157.187 186.25 159 187.438 159.187C192.063 160 197.063 158 198.063 153C198.938 148.687 195.563 144.75 191.375 144.25C186.75 143.687 181.688 147.062 181.063 151.812C180.5 155.937 184.25 159.625 188.375 158.312C189.438 158 188.938 156.187 187.75 156.562Z" fill="#E8E8E8"/>
<path d="M147.875 197.25C146.375 200.313 148.5 203.375 151.625 204.188C154 204.813 156.5 204.25 158.937 204.375C161.562 204.5 164.187 205.125 166.562 206.188C171.812 208.563 175.187 212.875 175.375 218.688C175.562 223.563 174.125 228.625 176.25 233.25C180.75 243 193.125 235.563 199.5 241.875C204.812 247.188 202.625 256.875 209.75 260.938C210.812 261.563 211.75 259.938 210.687 259.312C204.312 255.688 205.812 246.25 201.312 241C198.937 238.25 195.5 237.5 192 237.25C187.75 237 182.25 237.875 179.125 234.25C175.5 230 177.437 223.625 177.25 218.625C177.125 214.687 175.812 211.125 173.062 208.312C170.625 205.875 167.437 204.187 164.125 203.312C162.437 202.875 160.687 202.563 158.937 202.5C156.687 202.375 146.937 203.5 149.562 198.188C150.062 197.125 148.437 196.188 147.875 197.25Z" fill="#E8E8E8"/>
<path d="M1.75 534.625C13.0625 534.625 24.3125 534.625 35.625 534.625C36.8125 534.625 36.8125 532.75 35.625 532.75C24.3125 532.75 13.0625 532.75 1.75 532.75C0.5 532.75 0.5 534.625 1.75 534.625Z" fill="#E8E8E8"/>
<path d="M20 577C41.75 577 63.4375 577 85.1875 577C86.375 577 86.375 575.125 85.1875 575.125C63.4375 575.125 41.75 575.125 20 575.125C18.75 575.125 18.75 577 20 577Z" fill="#E8E8E8"/>
<path d="M82.5625 565.25C102.75 565.25 123 565.25 143.187 565.25C144.375 565.25 144.375 563.375 143.187 563.375C123 563.375 102.75 563.375 82.5625 563.375C81.3125 563.375 81.3125 565.25 82.5625 565.25Z" fill="#E8E8E8"/>
<path d="M418.75 562C428.937 559.5 439.187 559.25 449.562 560.875C453.937 561.563 458.375 562.25 462.812 561.875C467.125 561.5 471.312 560.188 475.5 559.063C480.25 557.75 485 556.75 490 557.125C495.125 557.5 500.062 558.937 505.062 560.062C509.375 561.062 513.75 561.75 518.187 561.688C522.875 561.563 527.5 560.75 532.062 560.062C544.562 558.062 556.312 559.313 568.687 561.375C569.875 561.563 570.375 559.75 569.187 559.562C559.187 557.938 549.125 556.25 538.937 557.25C528.312 558.312 518.437 560.938 507.687 558.75C498.687 556.938 490.125 554.125 480.875 555.875C475.937 556.813 471.25 558.563 466.312 559.5C460.812 560.563 455.5 559.938 450 559.063C439.312 557.438 428.75 557.563 418.187 560.187C417.125 560.5 417.625 562.313 418.75 562Z" fill="#E8E8E8"/>
<path d="M514.75 543C534.375 541.938 554 540.875 573.625 539.875C583.313 539.375 592.688 539.563 602.313 540.875C606.625 541.438 610.75 541.563 615.063 541.063C619.875 540.5 624.875 539.75 629.375 542.063C630.438 542.625 631.375 541 630.313 540.438C622.688 536.562 613.875 540.188 605.688 539.437C600.813 539 596.063 538.062 591.188 537.812C586.125 537.562 581.063 537.687 576 537.937C555.563 538.875 535.125 540.125 514.688 541.188C513.563 541.188 513.563 543.063 514.75 543Z" fill="#E8E8E8"/>
<path d="M130.437 596.688C139.687 597.563 149 598.438 158.25 597.375C162.562 596.875 166.687 595.938 170.875 594.688C176.312 593.063 181.187 592.625 186.812 593.625C191.125 594.375 195.375 595.438 199.687 595.813C204.25 596.188 208.812 595.938 213.375 595.5C222.937 594.563 232.5 592.937 242 595.063C243.187 595.313 243.687 593.5 242.5 593.25C233.375 591.25 224.25 592.562 215.062 593.5C210.5 593.938 205.937 594.375 201.375 594.125C196.187 593.875 191.187 592.5 186.125 591.688C181.875 591 177.812 591 173.625 592C169.125 593.125 164.875 594.625 160.25 595.313C150.375 596.75 140.312 595.75 130.437 594.875C129.187 594.688 129.25 596.563 130.437 596.688Z" fill="#E8E8E8"/>
<path d="M229.312 92.375C226.875 90.6875 223.562 88 224.562 84.625C225.625 81.125 228.25 82.8125 230.688 82C233.938 80.9375 233.75 77 232.812 74.4375C231.875 71.9375 229.875 65.875 235.062 67.9375C236.25 68.4375 237.125 69.25 238.5 68.8125C239.75 68.4375 240.375 67.3125 240.687 66.125C240.937 65.0625 240.75 63.9375 240.687 62.8125C240.562 62.0625 240.5 61.25 240.5 60.5C240.25 58.6875 241.375 57.9375 243.75 58.25C243.812 59.4375 245.687 59.4375 245.625 58.25C245.5 56.5 244.187 55.25 242.312 55.3125C240.125 55.375 238.937 57.5 238.687 59.5C238.5 60.875 239.625 64.0625 239 65.1875C238.25 65.6875 237.5 66.25 236.687 66.75C236.375 66.5625 236.062 66.375 235.75 66.1875C235.187 66 234.75 65.625 234.187 65.5C232.25 65.0625 230.687 66.25 230 68C228.812 71 230.937 73.5 231.562 76.3125C232.375 80.1875 229.437 79.75 226.875 80.1875C225.75 80.375 224.812 80.9375 224.062 81.75C220.125 86.3125 224.687 91.375 228.437 94C229.375 94.6875 230.312 93.0625 229.312 92.375Z" fill="#E8E8E8"/>
<path d="M241.625 90.625C239.563 88.25 238 85 242 83.75C243 83.4375 244.125 83.5625 245.063 82.9375C247.125 81.5 246.25 79.5625 245.875 77.5625C245.688 76.4375 245.25 74.9375 245.937 73.8125C246.437 73 248.25 72.6875 249.188 72.5C250.5 72.1875 251.875 72 253 71.25C254.687 70.0625 255.312 67.9375 254.187 66.125C253.562 65.125 251.938 66.0625 252.563 67.0625C254.438 70.0625 245.688 70.875 244.188 73.0625C242.438 75.625 246.125 80.125 243.063 81.75C241.875 82.375 240.375 81.9375 239.25 82.75C238.437 83.3125 237.875 84.1875 237.625 85.125C236.938 87.8125 238.75 90.125 240.375 92C241.125 92.875 242.438 91.5625 241.625 90.625Z" fill="#E8E8E8"/>
<path d="M167.812 75.8125C166.187 74.6875 166 72.6875 166.5 70.9375C166.813 69.75 168.312 66.5 169.75 66.375C172.125 66.125 173.313 69.125 173.938 70.875C174.5 72.5625 174.687 74.25 174.75 76C174.75 77.1875 176.625 77.1875 176.625 76C176.562 72.5 174.25 61.75 168.5 64.875C166.312 66.0625 164.687 69.5 164.437 71.875C164.187 74.125 165.062 76.125 166.875 77.4375C167.812 78.125 168.75 76.5 167.812 75.8125Z" fill="#E8E8E8"/>
<path d="M167.063 76.8125C164.813 77.375 162.563 77.9375 160.25 78.5C158.938 78.8125 156.688 78.9375 155.625 79.9375C153.813 81.625 154.313 86.8125 154.313 89C154.313 89.625 154.938 90.0625 155.5 89.875C155.813 89.8125 156.125 89.6875 156.5 89.625C158.125 88.75 158.938 89.3125 159 91.1875C160.25 92.4375 160.25 93.1875 159 93.3125C158.25 93.625 157.5 93.75 156.688 93.75C156.188 93.8125 155.75 94.125 155.75 94.6875C155.875 98.6875 156.188 102.625 156.625 106.625C156.75 107.813 158.625 107.813 158.5 106.625C158.063 102.625 157.75 98.6875 157.625 94.6875C157.313 95 157 95.3125 156.688 95.625C159.313 95.3125 163.5 94.25 162.938 90.6875C162.313 86.875 157.688 87.3125 155.063 88.0625C155.438 88.375 155.875 88.6875 156.25 88.9375C156.25 87.5 156.25 86.125 156.375 84.6875C156.563 82.4375 156.438 81.625 158.5 80.8125C161.313 79.6875 164.625 79.3125 167.563 78.5625C168.75 78.375 168.25 76.5625 167.063 76.8125Z" fill="#E8E8E8"/>
<path d="M176.062 77.375C178.687 77.25 181.375 77.25 184 77.5625C186.5 77.875 186.375 78.25 186.75 80.4375C187 81.8125 187.062 83.25 187.187 84.625C187.687 90 188.062 95.375 188.375 100.75C188.437 101.938 190.312 101.938 190.25 100.75C189.875 93.4375 189.625 85.9375 188.437 78.6875C188.125 76.875 187.812 76.3125 185.937 76C182.687 75.375 179.312 75.375 176.062 75.5625C174.875 75.5625 174.875 77.4375 176.062 77.375Z" fill="#E8E8E8"/>
<path d="M158 107.938C161.687 107.313 165.375 106.688 169 106.063C173.187 105.375 177.187 105.688 181.375 105.375C183.312 105.188 192.5 104.25 189.125 100.438C188.312 99.5625 187 100.875 187.812 101.75C188.312 102.313 179.812 103.563 179.625 103.563C177 103.625 174.375 103.5 171.75 103.813C167 104.375 162.25 105.375 157.5 106.188C156.312 106.313 156.812 108.125 158 107.938Z" fill="#E8E8E8"/>
<path d="M490 467.875C489.812 474.437 489.625 481 489.438 487.625C497.75 488.188 506 488.688 514.312 489.25C514.312 482.5 514.312 475.75 514.312 469C506.187 468.625 498.125 468.25 490 467.875Z" fill="#011627" stroke="#DADFE0" stroke-width="2" stroke-miterlimit="10"/>
<path d="M500.812 540.813C501.937 548.063 502.437 554.063 502.687 558.375C503.5 572.688 502.875 576 501.625 578.625C498.563 585.062 493 587.75 493.5 588.625C493.875 589.188 496.625 588.563 508.875 582.125C508.125 567.875 507.437 553.687 506.687 539.438C504.75 539.937 502.812 540.375 500.812 540.813Z" fill="#011627" stroke="#DADFE0" stroke-width="2" stroke-miterlimit="10"/>
<path d="M484.625 494.875C495.25 494.937 505.875 495.063 516.5 495.125C515.312 509.375 514.187 523.562 513 537.812C503.75 537.062 494.438 536.375 485.188 535.625C484.938 522.062 484.75 508.5 484.625 494.875Z" fill="#011627" stroke="#DADFE0" stroke-width="2" stroke-miterlimit="10"/>
<path d="M488.938 540.312C492.313 548.5 493.438 555.562 493.813 560.312C494.375 567.312 494.75 572.687 491.375 576.25C490.125 577.625 488.063 578.937 484.063 581.625C480.5 584 478.813 584.875 478.938 585.125C479.125 585.5 482.563 584.75 497.563 579.437C498.563 574.375 499.375 567.875 499.188 560.25C498.938 552.125 497.625 545.187 496.188 540C493.813 540.125 491.375 540.187 488.938 540.312Z" fill="#011627" stroke="#DADFE0" stroke-width="2" stroke-miterlimit="10"/>
<path d="M494.375 589.188C496.25 587.625 498 585.938 499.688 584.125C501.625 582 504.5 578.75 507.5 581.563C507.563 581.063 507.625 580.563 507.688 580.063C503.25 582.25 498.875 584.438 494.437 586.563C493.562 587 494 588.312 494.937 588.312C499.125 588.375 501.75 581.063 506.063 582.438C507.188 582.813 507.688 581 506.563 580.625C504.688 580.063 503.25 580.563 501.688 581.688C499.875 583 497.312 586.438 495 586.438C495.187 587 495.312 587.625 495.5 588.187C499.937 586 504.313 583.813 508.75 581.688C509.313 581.438 509.375 580.625 508.938 580.188C507.25 578.625 504.25 578.063 502.125 579.063C500.562 579.75 499.563 581.563 498.438 582.75C496.75 584.563 495 586.188 493.125 587.813C492.125 588.625 493.437 590 494.375 589.188Z" fill="#DADFE0"/>
<path d="M502.062 579.437C503.937 579.5 505.75 579.875 507.5 580.625C508.562 581.125 509.562 579.5 508.437 579C506.375 578.063 504.312 577.563 502.062 577.5C500.875 577.563 500.875 579.437 502.062 579.437Z" fill="#DADFE0"/>
<path d="M491.812 577.25C493.25 577.625 494.5 578.375 495.5 579.5C496.312 580.375 497.625 579.062 496.812 578.187C495.562 576.875 494 575.937 492.25 575.5C491.187 575.125 490.687 576.937 491.812 577.25Z" fill="#DADFE0"/>
<path d="M481.688 584.813C483.625 583.375 485.625 582.063 487.687 580.812C488.625 580.25 489.625 579.5 490.625 579.188C492.187 578.625 493.125 579 494.562 579.625C494.562 579.063 494.562 578.562 494.562 578C492.562 578.875 490.313 578.812 488.25 579.687C486.25 580.5 484.375 582.5 482.313 582.875C482.563 583.438 482.813 584 483.063 584.563C486.75 582.75 490.875 582.438 494.562 580.625C495.625 580.062 494.687 578.5 493.625 579C489.937 580.813 485.813 581.125 482.125 582.938C481.125 583.438 481.875 584.813 482.875 584.625C485.125 584.25 486.937 582.188 489.062 581.375C491.187 580.563 493.5 580.5 495.563 579.625C496.188 579.375 496.188 578.25 495.563 578C493.188 576.937 492.125 576.312 489.75 577.562C486.625 579.187 483.688 581.125 480.875 583.187C479.75 583.875 480.688 585.5 481.688 584.813Z" fill="#DADFE0"/>
<path d="M492.375 549.875C493.937 549.313 495.5 549.375 496.938 550.125C498 550.688 498.938 549.062 497.875 548.5C496 547.5 493.875 547.313 491.875 548.063C490.75 548.5 491.25 550.312 492.375 549.875Z" fill="#DADFE0"/>
<path d="M493.937 556.125C495.25 556 496.5 556.312 497.5 557.187C498.438 557.937 499.75 556.625 498.813 555.875C497.438 554.75 495.75 554.125 493.937 554.25C492.75 554.312 492.75 556.187 493.937 556.125Z" fill="#DADFE0"/>
<path d="M494.625 563.938C495.813 563.813 496.938 564.25 497.625 565.25C498.25 566.25 499.875 565.313 499.25 564.313C498.313 562.75 496.5 561.812 494.688 562.062C494.187 562.125 493.75 562.437 493.75 563C493.687 563.437 494.125 564 494.625 563.938Z" fill="#DADFE0"/>
<path d="M502.687 549.437C503.812 548.812 505.25 548.875 506.313 549.75C507.25 550.5 508.563 549.187 507.625 548.437C505.938 547.062 503.687 546.75 501.75 547.812C500.687 548.437 501.625 550.062 502.687 549.437Z" fill="#DADFE0"/>
<path d="M503.75 561.25C504.75 560.812 505.875 561 506.688 561.75C507.563 562.562 508.937 561.25 508 560.437C506.563 559.125 504.562 558.813 502.75 559.688C501.688 560.125 502.688 561.75 503.75 561.25Z" fill="#DADFE0"/>
<path d="M504 571.25C505 570.625 506.25 570.625 507.187 571.375C508.125 572.125 509.437 570.812 508.5 570.062C506.937 568.75 504.75 568.562 503.062 569.687C502.062 570.312 503 571.937 504 571.25Z" fill="#DADFE0"/>
<path d="M518 495.062C516.75 509.438 515.5 523.812 514.25 538.188" stroke="#DADFE0" stroke-width="6" stroke-miterlimit="10"/>
<path d="M485 536.188C495.437 536.938 505.875 537.625 516.313 538.375" stroke="#DADFE0" stroke-width="6" stroke-miterlimit="10"/>
<path d="M516.375 468.438C516.125 475.563 515.812 482.625 515.562 489.75" stroke="#DADFE0" stroke-width="6" stroke-miterlimit="10"/>
<path d="M517.687 503.5C523.5 502.437 529.687 507 530.125 513C530.75 520.5 522.188 521.812 516.563 521C515.375 520.812 514.875 522.625 516.062 522.813C522.937 523.813 532.625 521.875 532 513C531.5 505.687 524.188 500.375 517.188 501.687C516 501.875 516.5 503.687 517.687 503.5Z" fill="#DADFE0"/>
<path d="M516.313 524.312C518.75 524.812 520.688 526.562 521.375 528.937C521.687 530.125 523.5 529.625 523.188 528.437C522.375 525.437 519.938 523.062 516.875 522.5C515.625 522.312 515.125 524.062 516.313 524.312Z" fill="#DADFE0"/>
<path d="M515.375 523.688C516.875 525.875 517.563 528.312 517.313 531C517.25 532.188 519.125 532.188 519.188 531C519.375 528.063 518.625 525.188 516.938 522.75C516.313 521.75 514.688 522.688 515.375 523.688Z" fill="#DADFE0"/>
<path d="M484.563 502.625C480.438 500 472.875 507.563 471.938 511.25C470.063 518.75 479.688 517.875 483.688 520.375C484.688 521 485.625 519.375 484.625 518.75C481.75 516.937 477.5 517.625 475 515.375C471.937 512.625 474.75 509.312 476.875 507.375C478 506.375 481.813 503.063 483.625 504.188C484.625 504.938 485.625 503.313 484.563 502.625Z" fill="#DADFE0"/>
<path d="M483.563 519.5C481.938 520.125 480.437 521.063 479.187 522.375C478.25 523.375 477.062 524.937 478 526.312C478.687 527.312 480.313 526.375 479.625 525.375C479.187 524.75 480.812 523.375 481.25 523C482.063 522.25 483 521.687 484.063 521.313C485.188 520.875 484.75 519.063 483.563 519.5Z" fill="#DADFE0"/>
<path d="M482.812 520.813C481.625 522.688 481.25 524.813 481.687 526.938C481.937 528.125 483.75 527.625 483.5 526.438C483.125 524.75 483.5 523.188 484.437 521.75C485.125 520.75 483.5 519.813 482.812 520.813Z" fill="#DADFE0"/>
<path d="M488.75 501.437C488.438 506 488.5 510.625 488.813 515.187C488.938 516.375 490.813 516.375 490.688 515.187C490.313 510.625 490.312 506 490.625 501.437C490.75 500.25 488.875 500.25 488.75 501.437Z" fill="#DADFE0"/>
<path d="M490.125 501.937C496.75 502.312 503.312 502.563 509.937 502.688C509.625 502.375 509.312 502.063 509 501.75C508.812 506.437 508.625 511.188 508.375 515.875C508.312 517.062 510.187 517.062 510.25 515.875C510.438 511.188 510.625 506.437 510.875 501.75C510.875 501.25 510.438 500.813 509.937 500.813C503.312 500.688 496.75 500.438 490.125 500.063C488.937 500 488.937 501.875 490.125 501.937Z" fill="#DADFE0"/>
<path d="M489.375 516C492.125 516.75 495.188 516.562 497.937 516.75C501.312 516.937 504.75 517.187 508.125 517.375C509.312 517.437 509.312 515.562 508.125 515.5C505.125 515.313 502.125 515.125 499.125 514.938C496.125 514.75 492.75 514.938 489.813 514.188C488.75 513.875 488.25 515.687 489.375 516Z" fill="#DADFE0"/>
<path d="M491.5 525.688C492.625 528.125 495.063 526 496.938 526.875C497.813 527.25 497.625 527.813 498.813 527.875C500.188 527.938 503.563 525.188 504.25 527.75C504.438 528.438 505.313 528.625 505.813 528.188C506.438 528 507.125 527.813 507.75 527.688C508.5 528.625 509.875 527.25 509.063 526.375C507.625 524.688 505.813 525.625 504.438 526.875C504.938 527 505.5 527.125 506 527.313C505.438 525.125 503.125 523.687 500.938 524.688C499.875 525.188 499.75 526.125 498.125 525.5C497.813 525.375 497.688 524.875 497.375 524.75C496.688 524.5 493.063 524.875 493.063 524.813C492.625 523.625 491 524.562 491.5 525.688Z" fill="#DADFE0"/>
<path d="M494.812 476.5C494.937 475.812 495.75 475.625 496.312 475.875C497.125 476.187 497.562 477.125 497.937 477.812C498.437 478.875 500.062 477.937 499.562 476.875C498.875 475.5 497.812 474.062 496.125 473.875C494.75 473.75 493.312 474.562 493.062 475.937C492.75 477.187 494.562 477.687 494.812 476.5Z" fill="#DADFE0"/>
<path d="M506.313 477.375C506.438 476.75 507 476.375 507.625 476.625C508.375 476.875 508.688 477.812 508.813 478.5C509 479.687 510.813 479.187 510.625 478C510.375 476.5 509.375 474.938 507.75 474.688C506.312 474.5 504.75 475.375 504.5 476.875C504.313 478.062 506.125 478.562 506.313 477.375Z" fill="#DADFE0"/>
<path d="M495.75 480.438C497.875 484.188 502.938 484.75 505.688 481.375C506.438 480.438 505.125 479.125 504.375 480.062C502.375 482.5 498.938 482.313 497.375 479.5C496.812 478.438 495.187 479.375 495.75 480.438Z" fill="#DADFE0"/>
<path d="M430.187 140.812C422.312 137.625 417.562 130 414.687 122.375C411.625 114.438 410.312 105.813 410.75 97.3125C411.5 81.625 418.187 65.75 430.563 55.75C442.25 46.25 459.563 43.5625 472.563 52.1875C486.125 61.1875 488.563 79.75 488.688 94.6875C488.813 111.313 484.938 128.75 472.625 140.688C471.75 141.5 473.063 142.875 473.938 142C485.625 130.625 490.063 114.375 490.5 98.5C490.938 82.9375 489.063 63.25 476.25 52.5625C464.25 42.5625 446.438 43.0625 433.625 51.1875C419.437 60.1875 411.062 76.5 409.25 92.9375C408.125 103.125 409.375 113.688 413.125 123.313C416.312 131.438 421.375 139.188 429.75 142.563C430.813 143.063 431.25 141.25 430.187 140.812Z" fill="#E8E8E8"/>
<path d="M429.313 142C427.188 145 427.625 149.437 430.75 151.687C433.125 153.375 436.625 153.625 439.438 154C442.813 154.5 446.25 154.687 449.688 154.687C455.813 154.625 462.813 154.187 468.5 151.812C472.625 150.062 475.75 145.937 473.562 141.5C473.062 140.437 471.438 141.375 471.938 142.437C476.625 152 454.438 152.812 449.625 152.812C445.188 152.812 440.75 152.437 436.438 151.625C434.375 151.25 432.063 150.875 430.75 149.062C429.438 147.187 429.688 144.75 430.938 143C431.625 141.937 430 141 429.313 142Z" fill="#E8E8E8"/>
<path d="M431.312 152.125C431.312 155.25 431.375 158.438 431.75 161.563C431.937 163 432.25 164.25 433.437 165.125C435.125 166.375 437.937 166.313 439.937 166.5C443.312 166.75 446.75 166.75 450.125 166.625C453.312 166.5 456.5 166.25 459.687 165.938C461.562 165.75 463.687 165.813 465.125 164.375C468.312 161.25 468.375 155.313 467.562 151.375C467.312 150.188 465.5 150.688 465.75 151.875C466.187 154 466.312 156.125 465.875 158.313C465.25 161.375 464.375 163.375 460.937 164C456.937 164.75 452.437 164.75 448.375 164.813C444.375 164.875 439.875 165.063 435.937 164.125C432.312 163.25 433.25 155.125 433.25 152.125C433.187 150.938 431.312 150.938 431.312 152.125Z" fill="#E8E8E8"/>
<path d="M375.125 133.938C383.437 131.125 391.687 128.313 400 125.5C401.125 125.125 400.625 123.313 399.5 123.688C391.187 126.5 382.937 129.312 374.625 132.125C373.437 132.5 373.937 134.312 375.125 133.938Z" fill="#E8E8E8"/>
<path d="M384.625 121.437C387.5 120.625 390.375 119.75 393.25 118.937C394.375 118.625 393.938 116.812 392.75 117.125C389.875 117.937 387 118.812 384.125 119.625C383 120 383.438 121.812 384.625 121.437Z" fill="#E8E8E8"/>
<path d="M363.813 100.625C374.813 100.5 385.75 100.813 396.688 101.5C397.875 101.563 397.875 99.6875 396.688 99.625C385.75 98.9375 374.75 98.6875 363.813 98.75C362.625 98.75 362.625 100.625 363.813 100.625Z" fill="#E8E8E8"/>
<path d="M387.063 92.125C389.688 92.8125 392.375 93.125 395.063 93.1875C396.25 93.1875 396.25 91.3125 395.063 91.3125C392.5 91.25 390 90.9375 387.563 90.3125C386.375 90 385.875 91.8125 387.063 92.125Z" fill="#E8E8E8"/>
<path d="M383 33.9375C392.812 42.375 401.75 51.625 409.812 61.75C410.562 62.6875 411.875 61.375 411.125 60.4375C403.062 50.3125 394.125 41 384.313 32.625C383.438 31.8125 382.062 33.125 383 33.9375Z" fill="#E8E8E8"/>
<path d="M410.437 51.6875C412.125 53.4375 413.75 55.1875 415.438 57C416.25 57.875 417.563 56.5625 416.75 55.6875C415.063 53.9375 413.437 52.1875 411.75 50.375C410.937 49.5 409.625 50.8125 410.437 51.6875Z" fill="#E8E8E8"/>
<path d="M372.375 55.1875C375.437 57 378.563 58.6875 381.75 60.25C382.813 60.8125 383.75 59.1875 382.688 58.625C379.5 57 376.375 55.3125 373.312 53.5625C372.25 52.9375 371.312 54.5625 372.375 55.1875Z" fill="#E8E8E8"/>
<path d="M481.125 40.9375C490.375 31.6875 499.625 22.4375 508.875 13.1875C509.75 12.3125 508.375 11 507.563 11.875C498.313 21.125 489.063 30.375 479.813 39.625C478.938 40.5 480.25 41.8125 481.125 40.9375Z" fill="#E8E8E8"/>
<path d="M490.437 45.25C492.812 43.5 495.188 41.8125 497.563 40.0625C498.5 39.375 497.625 37.75 496.625 38.4375C494.25 40.1875 491.875 41.875 489.5 43.625C488.5 44.3125 489.437 45.9375 490.437 45.25Z" fill="#E8E8E8"/>
<path d="M452.25 28.6875C454.125 19.625 455.562 10.5 456.438 1.3125C456.563 0.125 454.687 0.125 454.562 1.3125C453.687 10.3125 452.312 19.3125 450.437 28.1875C450.187 29.375 452 29.875 452.25 28.6875Z" fill="#E8E8E8"/>
<path d="M504.812 86.1875C521.812 84.625 538.75 83.0625 555.75 81.5C556.937 81.375 556.937 79.5 555.75 79.625C538.75 81.1875 521.812 82.75 504.812 84.3125C503.625 84.375 503.562 86.25 504.812 86.1875Z" fill="#E8E8E8"/>
<path d="M433.375 144.25C443.937 146.562 454.687 146.5 465.187 144.125C466.375 143.875 465.875 142.063 464.687 142.313C454.5 144.625 444.062 144.687 433.875 142.437C432.687 142.187 432.187 144 433.375 144.25Z" fill="#E8E8E8"/>
<path d="M434.938 160.125C443 161.188 451.062 161.438 459.188 160.875C460.375 160.813 460.375 158.938 459.188 159C451.062 159.563 443 159.313 434.938 158.25C433.75 158.125 433.75 160 434.938 160.125Z" fill="#E8E8E8"/>
<path d="M493 137.938C505.687 146.875 518.625 155.5 531.75 163.813C532.75 164.438 533.687 162.813 532.687 162.188C519.562 153.875 506.625 145.25 493.937 136.313C492.937 135.625 492 137.25 493 137.938Z" fill="#E8E8E8"/>
<path d="M454.435 118.224V143.481M454.435 118.224C456.524 106.953 461.521 93.1047 461.494 93.3491C461.467 93.5935 465.632 85.0397 470.234 87.2984C474.837 89.5572 475.929 92.1527 474.268 96.3744C469.512 108.206 465.028 112.833 454.435 118.224ZM454.435 118.224C444.201 112.842 437.964 108.812 432.586 100.072C429.035 95.2149 428.734 92.1555 434.266 87.2984C438.862 84.6967 441.283 85.8765 445.359 92.0045C449.602 97.9791 451.328 105.315 454.435 118.224Z" stroke="black" stroke-width="1.5"/>
<path d="M333.312 577.562C321.437 592.125 309.625 606.625 297.75 621.188C311.688 670.188 319.562 683.063 324.25 682.375C327.625 681.875 329.25 674.562 331.063 666.375C335.563 645.937 332.875 628.375 330.125 617.438C337.625 609.063 345.063 600.625 352.563 592.25C346.125 587.375 339.75 582.5 333.312 577.562Z" fill="#E8E8E8" stroke="#E8E8E8" stroke-width="2" stroke-miterlimit="10"/>
<path d="M289.5 502.562C296.937 508.312 304.062 506.25 318.812 508.75C331.375 510.875 345.5 515.563 360.5 524.938C344.5 543.688 328.5 563.5 312.625 584.375C308.812 589.438 305 594.5 301.312 599.563C307.438 601 314.812 603.25 322.812 606.875C330.625 610.375 337 614.312 342.062 617.875C365.875 597.125 387.125 577.063 406.062 558.125C414.812 549.375 427.187 536 429.125 517.062C429.25 516 429.25 515.062 429.25 514.125C428.812 482.687 389.25 459.937 365.187 451.562C338.875 442.437 293.625 437.5 281 459.312C273.563 472.187 277.937 493.625 289.5 502.562Z" fill="#6DA6C1"/>
<path opacity="0.26" d="M335.688 471.125C335.25 477.062 334.187 484.125 332 491.937C330.437 497.5 328.562 502.437 326.687 506.625C324.625 507.437 322.625 508.25 320.562 509.062C334 514.375 347.5 519.687 360.937 525C350.937 536.437 340.875 548.438 330.75 560.938C320.312 573.813 310.375 586.438 300.937 598.875C307.625 601.063 314.25 603.25 320.937 605.375C344.875 579 368.813 552.563 392.75 526.188C395.25 519 395.125 513.375 394.375 509.437C390.937 490.187 367.375 474.5 335.688 471.125Z" fill="#6D6C6C"/>
<path opacity="0.23" d="M360.812 524.875C363 528.187 365.125 531.562 367.312 534.875C348.687 557.312 330.062 579.688 311.437 602.125C308.125 601.25 304.75 600.312 301.437 599.437C313.375 583.062 326.25 566.25 340.187 549.313C347.125 540.875 354 532.75 360.812 524.875Z" fill="#6D6C6C"/>
<path d="M298.625 553.812C317.062 557.188 335.563 560.5 354 563.875C375.313 610.375 377.688 625.375 373.688 627.938C370.813 629.75 364.813 625.25 358.125 620.188C341.375 607.5 332.063 592.375 327 582.188C315.875 580.688 304.75 579.125 293.625 577.625C295.25 569.688 296.937 561.75 298.625 553.812Z" fill="#E8E8E8" stroke="#E8E8E8" stroke-width="2" stroke-miterlimit="10"/>
<path d="M260.625 450.25C227 460.125 206.5 480.625 193.312 494.125C175.5 512.437 153.625 534.875 159.937 551.437C163.187 559.875 173.062 565.063 219.062 573.062C253.812 579.125 283.938 582.375 307.438 584.188C310.375 573.438 313.313 562.75 316.188 552C292.563 544.375 269 536.813 245.375 529.188C259.875 526.125 275.125 522.5 291 518.063C303.063 514.688 314.562 511.188 325.5 507.5C335.625 487.063 337.813 465 327.25 452.5C312.5 435 279.438 444.688 260.625 450.25Z" fill="#6DA6C1"/>
<path opacity="0.29" d="M335.438 471.875C335.125 478.063 334.063 486 331.188 494.75C329.438 500.063 327.438 504.688 325.438 508.5C323.75 508.625 322.063 508.813 320.375 508.938C306.125 513.625 290.937 518.063 274.875 522.188C264.5 524.875 254.375 527.188 244.562 529.313C268.25 536.75 291.937 544.125 315.625 551.563C315.125 554.125 314.5 556.813 313.75 559.625C312.875 562.875 311.875 565.875 310.937 568.625C278.25 560.563 245.563 552.5 212.875 544.438C211.375 542.625 206.437 536.063 207.187 527.375C208 517.938 217 511.25 228.5 505.125C261.75 487.5 317.5 475.563 335.438 471.875Z" fill="#6D6C6C"/>
<path opacity="0.24" d="M227.75 530.625C233.688 530.188 239.687 529.75 245.625 529.25C268.937 537 292.25 544.813 315.562 552.562C314.562 556.25 313.563 560 312.563 563.688C284.313 552.625 256 541.625 227.75 530.625Z" fill="#6D6C6C"/>
<path d="M251.812 308.625C261.062 303.187 277.125 295.437 298.5 293.187C331.25 289.75 356.375 301.5 366.312 306.813C364.5 331.375 361.688 351 359.438 364.5C356.75 380.625 354.562 389.563 353.562 404.375C352.312 422.938 353.875 438.188 355.312 448.188C344.437 451.562 328 455.25 307.75 454.813C288.25 454.375 272.5 450.125 261.938 446.438C264.75 424.063 263.812 406.313 262.437 394.25C260.875 380.812 258.75 374.25 256.187 358C252.875 337 252 319.812 251.812 308.625Z" fill="#9479E5" stroke="#9479E5" stroke-width="2" stroke-miterlimit="10"/>
<path opacity="0.413" d="M319.438 300.625C320.75 305.375 322.25 311.937 323.25 319.812C323.938 325.125 326.75 349.187 318 380.937C312.625 400.5 306.937 421.187 288.312 438.187C282.312 443.687 276.5 447.375 272.25 449.687C281.688 452.125 294 454.437 308.562 454.562C327.625 454.75 343.375 451.312 354.313 447.938C353.688 443.25 352.875 436.187 352.563 427.687C352.313 420.25 352.313 408.375 357.438 374.938C361.5 348.625 364.375 337.312 365.813 313.5C366 310.75 366.063 308.437 366.188 306.875C361.625 304.187 355.688 301.25 348.375 298.875C341.625 296.687 335.563 295.562 330.563 295.062C326.938 296.875 323.188 298.75 319.438 300.625Z" fill="#6D6C6C"/>
<path opacity="0.17" d="M364.375 317.062C360.875 336.875 356.25 352.875 352.625 364C342 396.5 334.562 418.375 314.5 434.375C302.062 444.312 289.125 448.5 280.812 450.5C289.25 452.875 301.187 455.187 315.625 454.875C332.25 454.5 345.688 450.75 354.5 447.562C353.313 439.937 351.938 428.5 352.313 414.562C352.75 396.5 355.687 385.625 358.937 365.812C360.75 354.187 363.062 337.562 364.375 317.062Z" fill="#6D6C6C"/>
<path d="M251.437 308.312C243.312 313.937 232.875 322.812 223.75 336C203.188 365.875 203.75 397.562 204.563 409.25C208.313 419.312 214.75 432.5 226 445.438C232.563 453 242.187 463.875 258.625 470.875C264.125 473.25 268.938 474.562 272.438 475.312C275.438 472.625 278.375 469.937 281.375 467.25C271.75 456 262.062 444.188 252.375 432C244.937 422.687 237.813 413.438 230.938 404.312C231.188 396.625 232.813 382.687 241.188 368.125C245.938 359.875 251.5 353.875 255.938 349.812C254.438 336 252.937 322.187 251.437 308.312Z" fill="white" stroke="#E8E8E8" stroke-width="2" stroke-miterlimit="10"/>
<path opacity="0.13" d="M252.625 322.25C234.625 342.562 226.062 361.812 221.812 373.937C214.375 394.937 215.937 405.938 217.062 411.188C218 415.313 220.062 422.375 227.625 433.125C234.187 442.438 248 459.125 274.313 472.875C276.625 470.625 278.938 468.438 281.25 466.188C273.812 457.813 266.312 449 258.75 439.813C248.812 427.75 239.563 415.875 231 404.25C231.25 397.937 232.313 389.125 236 379.25C241.563 364.437 250.312 354.688 255.75 349.5C254.625 340.437 253.625 331.375 252.625 322.25Z" fill="#6D6C6C"/>
<path opacity="0.16" d="M230.938 405.062C232.062 412.375 234.375 421.688 239.25 431.75C250 453.625 266.813 465.688 275.375 470.938C277.062 469.438 278.688 468 280.375 466.5C263.875 446 247.437 425.5 230.938 405.062Z" fill="#6D6C6C"/>
<path d="M367.25 307.188C376.375 312.75 388.125 321.438 398.312 334.375C421.437 363.688 420.75 394.812 419.875 406.312C415.625 416.188 408.437 429.125 395.812 441.875C388.437 449.25 377.625 459.938 359.188 466.875C353 469.188 347.562 470.5 343.625 471.25C340.312 468.625 336.937 466 333.625 463.375C344.375 452.313 355.313 440.75 366.188 428.75C374.5 419.563 382.5 410.5 390.25 401.563C389.938 394.063 388.187 380.375 378.75 366C373.375 357.875 367.188 352 362.188 348C363.938 334.375 365.625 320.813 367.25 307.188Z" fill="white" stroke="#E8E8E8" stroke-width="2" stroke-miterlimit="10"/>
<path opacity="0.16" d="M366.813 322.375C374.75 330.687 385.562 344 394 362.562C398 371.375 404.5 385.688 404.625 399.188C405.062 440.25 346.938 468.5 343.563 470.125C340.25 468 337 465.937 333.688 463.812C352.5 443.187 371.25 422.562 390.062 401.937C389.688 395.187 388.125 382.625 380.625 369.25C374.437 358.25 366.75 351.125 361.688 347.188C363.438 338.938 365.125 330.687 366.813 322.375Z" fill="#6D6C6C"/>
<path opacity="0.12" d="M390.688 402.125C389.75 407.563 388.188 413.5 385.75 419.625C374.75 447.375 352.5 462.563 341.25 469.062C338.562 467.312 335.938 465.562 333.25 463.812C352.375 443.25 371.5 422.688 390.688 402.125Z" fill="#6D6C6C"/>
<path d="M381.625 406.75H227.938V504.062H381.625V406.75Z" fill="white" stroke="#161616" stroke-width="2" stroke-miterlimit="10"/>
<path d="M302.563 464.687C294.438 465.687 290.5 455.812 292.625 449.25C294.688 442.75 302.375 439.687 308.625 441.937C314.812 444.187 317.812 451.75 315.625 457.813C313.188 464.562 304.688 467.313 298.438 464.313C297.375 463.813 296.375 465.437 297.5 465.937C303.063 468.625 309.875 467.625 314.313 463.25C318.625 458.938 319.25 452.125 316.562 446.813C310.438 434.688 291.5 438.563 290.188 451.875C289.5 459 294.625 467.562 302.563 466.625C303.75 466.437 303.75 464.562 302.563 464.687Z" fill="#161616"/>
<path opacity="0.14" d="M285.625 406.5C306.437 413.75 320.625 432.312 321.062 452.25C321.625 477.25 300.625 500.75 272 503.125C308.437 503.438 344.875 503.75 381.375 504.062C381.25 471.438 381.187 438.812 381.062 406.25C349.25 406.25 317.437 406.375 285.625 406.5Z" fill="#6D6C6C"/>
<path opacity="0.26" d="M381.375 406.188C380.812 426.063 376.875 441.563 373.562 451.75C368.687 466.563 365.187 477.375 355.125 486.937C341.437 500.062 324.375 502.5 316.875 503.125C338.187 503.312 359.5 503.5 380.812 503.75C380.875 485.188 381 466.625 381.125 448C381.125 434.063 381.25 420.125 381.375 406.188Z" fill="#6D6C6C"/>
<path d="M300.25 258.187C296.812 262.375 300.125 267.5 299.5 281.188C299.187 288 298.062 293.5 297.187 297.188C300.125 298.563 305.312 300.5 312 300.688C320.25 300.875 326.5 298.313 329.562 296.813C328.187 294.063 326.375 289.813 325.25 284.313C322.438 270.312 327.437 263.75 323.312 258.562C318.5 252.562 304.875 252.5 300.25 258.187Z" fill="white" stroke="#E8E8E8" stroke-width="2" stroke-miterlimit="10"/>
<path d="M278.438 198.062C274.5 208.187 276 217.312 276.875 221.25C276.5 221.312 269.188 222.875 267.188 228.5C265.188 234.187 269.313 242.25 277.938 244.875C281.063 252.5 288.625 267.25 304.563 275.312C307.25 276.625 309.813 277.688 312.375 278.438C314.688 277.562 317.813 276.188 321.375 274.125C332.5 267.688 338.688 259.687 340.125 257.75C342.75 254.25 346.313 248.625 348.813 240.875C350.188 241.125 352.625 241.25 355 240.062C360.375 237.312 363.063 228.75 359.313 223.187C356.188 218.562 350.125 218.375 349.375 218.375C350.188 215.125 352.688 203.437 346.375 191.875C339.125 178.562 323.563 171.562 308.938 173.562C287.313 176.375 278.813 197.062 278.438 198.062Z" fill="white" stroke="#161616" stroke-width="2" stroke-miterlimit="10"/>
<path d="M299.438 274.75C303.25 277 307.438 280.5 312.125 280.125C316 279.813 320.312 277.562 323.25 275.187C324.187 274.437 322.875 273.125 321.938 273.875C319.188 276.063 314.75 278.375 311.125 278.312C307.312 278.25 303.438 275.063 300.313 273.125C299.375 272.5 298.438 274.125 299.438 274.75Z" fill="#E8E8E8"/>
<path d="M299.188 275.562C302.75 278.625 306.813 282.063 311.813 281.813C316.688 281.563 321.25 278.313 324.438 274.812C325.25 273.937 323.938 272.625 323.125 273.5C320.375 276.5 316.5 279.437 312.25 279.875C307.563 280.312 303.813 277.125 300.5 274.25C299.625 273.437 298.313 274.75 299.188 275.562Z" fill="#E8E8E8"/>
<path d="M301.562 275.938C301.562 275.875 301.562 275.875 301.562 275.938C301.187 275.375 300.5 275.25 300.063 275.688C300.063 275.688 300.062 275.688 300 275.75C299.625 276.063 299.625 276.75 300 277.063C306.875 283.625 319.5 285.75 324.437 275.688C324.937 274.625 323.375 273.625 322.812 274.75C318.437 283.75 307.375 281.563 301.375 275.75C301.375 276.188 301.375 276.625 301.375 277.063C301.375 277.063 301.375 277.063 301.437 277C300.937 276.938 300.438 276.875 299.938 276.813V276.875C300.563 277.875 302.187 276.938 301.562 275.938Z" fill="#E8E8E8"/>
<path d="M309.063 218.125C308.25 228.25 308.688 238.312 310.313 248.312C310.375 248.812 311 249.125 311.438 248.937C313.875 248.125 315.625 246.688 316.938 244.5C317.563 243.438 315.938 242.5 315.313 243.563C314.25 245.375 312.938 246.437 310.938 247.125C311.313 247.312 311.688 247.562 312.063 247.75C310.438 237.937 310.063 228 310.875 218.062C311.063 216.875 309.188 216.875 309.063 218.125Z" fill="#161616"/>
<path d="M297.937 228.062C298.062 228.625 299 232.125 297.937 232.687C296.875 233.25 293.875 231 292.938 228.062C292.188 225.562 292.813 222.437 294 222.187C295.25 221.875 297.187 225.312 297.937 228.062Z" fill="#161616" stroke="#161616" stroke-miterlimit="10"/>
<path d="M330.187 228.062C330.312 228.625 331.25 232.125 330.187 232.687C329.125 233.25 326.125 231 325.187 228.062C324.437 225.562 325.062 222.437 326.25 222.187C327.5 221.875 329.437 225.312 330.187 228.062Z" fill="#161616" stroke="#161616" stroke-miterlimit="10"/>
<path d="M306.813 256.562C314.438 259.812 321.375 255.25 327 250.312C327.938 249.5 326.563 248.187 325.688 249C320.813 253.25 314.562 257.812 307.812 254.937C306.625 254.5 305.688 256.125 306.813 256.562Z" fill="#161616"/>
<path d="M328.813 238C330 238 330 236.125 328.813 236.125C327.625 236.125 327.625 238 328.813 238Z" fill="#161616"/>
<path d="M335.75 234.5C335.813 234.437 335.875 234.375 335.937 234.312C336.313 233.937 336.313 233.375 335.937 233C335.562 232.625 335 232.625 334.625 233C334.562 233.062 334.5 233.125 334.438 233.187C334.062 233.562 334.062 234.125 334.438 234.5C334.813 234.875 335.375 234.875 335.75 234.5Z" fill="#161616"/>
<path d="M333.688 239.062C333.75 239.062 333.812 239.062 333.875 239.062C334.375 239.062 334.812 238.625 334.812 238.125C334.812 237.625 334.375 237.188 333.875 237.188C333.812 237.188 333.75 237.188 333.688 237.188C333.188 237.188 332.75 237.625 332.75 238.125C332.75 238.625 333.125 239.062 333.688 239.062Z" fill="#161616"/>
<path d="M290.562 216.875C292.938 214.875 296.438 214.812 298.813 216.75C299.75 217.5 301.063 216.187 300.125 215.437C296.875 212.813 292.375 212.812 289.187 215.562C288.312 216.312 289.687 217.625 290.562 216.875Z" fill="#161616"/>
<path d="M321.062 216.187C323.75 213.812 327.562 213.375 330.75 215.062C331.812 215.625 332.75 214 331.687 213.438C327.75 211.313 323.063 211.875 319.75 214.875C318.813 215.687 320.125 217 321.062 216.187Z" fill="#161616"/>
<path d="M291.063 237.812C292.25 237.812 292.25 235.938 291.063 235.938C289.875 235.938 289.875 237.812 291.063 237.812Z" fill="#161616"/>
<path d="M297.688 236.937C298.875 236.937 298.875 235.063 297.688 235.063C296.5 235.063 296.5 236.937 297.688 236.937Z" fill="#161616"/>
<path d="M294.375 238.375C294.312 238.437 294.25 238.5 294.188 238.563C293.812 238.938 293.812 239.5 294.188 239.875C294.563 240.25 295.125 240.25 295.5 239.875C295.562 239.812 295.625 239.75 295.688 239.687C296.063 239.312 296.063 238.75 295.688 238.375C295.313 238 294.75 238 294.375 238.375Z" fill="#161616"/>
<path d="M288.625 177.75C284.875 180.062 276.687 185.125 271.125 195.5C265.562 205.812 265.625 215.563 265.875 219.75C256.75 236.188 252.625 250.688 250.625 260.563C247.375 276.25 249.125 282 251.375 285.813C256.875 295.188 267.937 297.5 270.625 298.063C284.437 301 295.437 293.938 297.937 292.313C298.625 290.25 299.312 287.688 299.687 284.813C300.375 279.875 300 275.625 299.438 272.563C296.313 270 292.687 266.562 289.187 262.062C283.875 255.188 280.875 248.438 279.187 243.563C273.687 243 269.562 239.25 269.187 235.063C268.812 231.125 271.562 226.063 275.187 226.063C277.875 226.063 279.812 228.812 280.187 229.312C282.25 228.125 285.125 226.063 287.687 222.813C291.375 218.125 292 213.937 293.687 209.562C295.312 205.312 298.437 199.437 305.187 193.312C311.687 195.625 316.875 197.875 320.437 199.562C331.875 204.875 338.375 208 343.437 214.813C346.25 218.563 347.687 222.25 348.437 224.562C354.25 220.125 356.625 221.313 357.125 221.563C360.813 223.625 360.688 234.938 354.938 238.062C352.75 239.25 350.25 238.938 348.688 238.563C346.875 244.875 342.875 255.188 333.688 264.313C330.625 267.375 327.5 269.75 324.687 271.563C324.437 273.875 324.313 277.063 324.938 280.813C325.5 284.25 326.5 287.063 327.438 289.063C342.625 299.063 361.5 297.25 371.75 286.5C380.875 276.875 380.875 262.312 377.438 252.375C374.313 243.312 368.25 237.875 365.25 235.5C366.063 232 370.562 211.25 357.5 192.187C354.125 187.25 344.687 175.312 327.687 171.187C309.687 166.812 294.875 173.937 288.625 177.75Z" fill="#88231C"/>
<path opacity="0.17" d="M328.25 203.438C335.312 212.313 337.187 220.5 337.812 224.75C340.375 242.625 330 257.125 324.75 264.563C320.437 270.625 316 274.938 312.812 277.75C315.562 285.125 318.25 292.438 321 299.813C323.813 298.875 326.625 297.938 329.438 297C328.125 294.688 326.75 291.813 325.688 288.313C323.75 282.063 323.625 276.563 323.813 272.813C327.25 270.375 331.25 267.063 335.125 262.688C342.875 253.938 346.75 244.938 348.75 238.875C350 239.125 352.688 239.438 355.25 238C360.625 234.937 359.75 227.312 359.688 226.812C359.5 225.188 359.125 222.562 357.25 221.5C355.063 220.312 351.438 221.438 348.563 224.813C347.688 221.75 345.187 214.688 338.437 209.063C334.687 205.938 330.875 204.313 328.25 203.438Z" fill="#6D6C6C"/>
<path opacity="0.19" d="M309.938 218.687C309.563 218.625 308.312 224.062 304.5 248.062C306.688 248.062 308.875 248.062 311.062 248.062C310.625 244.875 310.125 240.25 309.875 234.625C309.562 225 310.313 218.75 309.938 218.687Z" fill="#6D6C6C"/>
<path opacity="0.54" d="M364.875 236.125C363.812 236.75 367.812 242.125 367.25 250.125C367.062 252.625 366.687 258.312 362.187 262.125C361.875 262.375 355.187 267.875 348.562 264.375C344.625 262.312 342.25 257.937 342.375 253.187C340.5 256.687 337.437 261.312 332.625 265.812C329.625 268.625 326.688 270.688 324.125 272.25C323.938 275 323.937 278.75 324.937 283C325.5 285.312 326.187 287.312 326.875 288.938C328.812 290.188 331.687 291.875 335.437 293.188C337.812 294 350.875 298.563 363.625 292.25C365.875 291.125 370.875 288.563 374.5 283.062C374.937 282.375 376.562 279.937 377.75 275.812C382 261.687 375.75 248.937 375.187 247.875C371.75 240.937 366.187 235.375 364.875 236.125Z" fill="#742320" fill-opacity="0.956863"/>
<path opacity="0.35" d="M279.125 243.813C278.563 243.875 279.813 249 278.438 254.063C277.438 257.812 274.25 263.937 268.813 265.187C263.125 266.437 256.063 262.25 252.813 254.438C251.313 257.875 249.313 263.375 249 270.375C248.813 274.938 248.562 279.812 250.812 284.625C255.875 295.375 270.75 299.562 281.813 298.562C289.188 297.875 294.75 295 297.75 293.062C298.5 290.937 299.25 288.375 299.75 285.438C300.563 280.375 300.375 275.937 299.938 272.687C295 269.125 291.625 265.437 289.5 262.75C286.5 258.937 282.438 253.813 280.375 246.688C280.063 245.875 279.5 243.75 279.125 243.813Z" fill="#742320"/>
</svg>
